<?xml version="1.0" encoding="utf-8"?>
<!-- Generator: Adobe Illustrator 26.3.1, SVG Export Plug-In . SVG Version: 6.00 Build 0)  -->
<svg version="1.1" id="Layer_1" xmlns="http://www.w3.org/2000/svg" xmlns:xlink="http://www.w3.org/1999/xlink" x="0px" y="0px"
	 viewBox="0 0 437.2 438.8" style="enable-background:new 0 0 437.2 438.8;" xml:space="preserve">
<style type="text/css">
	.st0{fill:#AFAFAF;}
</style>
<g>
	<path class="st0" d="M421.2,0H311.1c-6.4,0-11.2,3.2-14.4,8c-6.4,11.2,1.6,22.3,12.8,22.3h73.4L250.5,162.7c-6.4,6.4-6.4,16,0,22.3
		c6.4,6.4,16,6.4,22.3,0L405.2,52.7V126c0,8,6.4,14.4,16,16c8,0,16-8,16-16V15.9C437.2,8,429.2,0,421.2,0L421.2,0z"/>
	<path class="st0" d="M323.9,384.5c0,9.6-8,16-16,16H51.1c-9.6,0-16-8-16-16V129.2c0-9.6,8-16,16-16h205.8l33.5-33.5H51.1
		C23.9,79.8,0,102.1,0,130.8v256.9c0,27.1,22.3,51.1,51.1,51.1H308c27.1,0,51.1-22.3,51.1-51.1V146.8l-33.5,33.5v204.2H323.9z"/>
</g>
</svg>
